<svg xmlns="http://www.w3.org/2000/svg" 
  viewBox="0 0 6250 6250" 
  width="100%" 
  style="display:block;max-width:300px;margin:0 auto;">
<style>
path { fill: #0f0e0c; }
@media (prefers-color-scheme: dark) { path { fill: #f7f4ee; } }
</style>
<g transform="translate(0,6250) scale(0.1,-0.1)">
<path d="M19036 50303 c-199 -564 -222 -651 -236 -903 -20 -345 -79 -469 -265
-561 -44 -21 -64 -37 -61 -46 5 -11 119 -207 187 -318 18 -31 18 -31 -162
-145 -99 -62 -182 -117 -184 -121 -3 -4 53 -83 124 -177 129 -169 129 -169
-235 -377 -200 -114 -364 -211 -364 -215 0 -4 11 -32 24 -61 23 -54 23 -54
177 -55 336 -2 492 -80 455 -228 -12 -47 -82 -94 -196 -131 -54 -17 -209 -92
-245 -119 -18 -13 -13 -21 86 -132 106 -119 106 -119 -45 -168 -198 -63 -262
-96 -360 -182 -156 -137 -153 -119 -29 -219 128 -103 220 -149 455 -232 92
-32 168 -62 168 -67 0 -17 -124 -148 -214 -224 -171 -147 -304 -224 -736 -425
-220 -102 -420 -205 -444 -227 -5 -5 146 -86 335 -180 343 -172 343 -172 -466
-456 -775 -272 -824 -290 -814 -297 279 -206 281 -206 719 -212 354 -5 390
-11 445 -77 69 -82 12 -229 -257 -661 -44 -70 -78 -134 -75 -141 8 -19 143
-73 203 -81 107 -15 205 25 435 176 74 49 139 89 142 89 4 0 82 -50 174 -111
167 -112 167 -112 37 -236 -404 -387 -426 -402 -1364 -938 -645 -369 -785
-453 -827 -493 -39 -38 -173 -224 -173 -239 1 -10 170 -115 230 -142 58 -27
135 -27 315 0 109 15 482 84 620 114 15 3 24 -5 40 -38 30 -64 114 -141 169
-157 79 -22 182 -8 365 49 204 63 197 63 205 3 10 -78 65 -180 128 -238 70
-64 162 -108 363 -174 184 -60 179 -58 165 -96 -52 -138 -737 -573 -1340 -850
-583 -267 -1388 -530 -1661 -541 -313 -13 -667 125 -937 367 -72 64 -182 189
-182 206 0 5 52 55 115 112 63 57 115 106 115 110 0 4 -80 54 -178 112 -323
191 -457 291 -559 416 -55 67 -115 167 -105 175 4 4 112 17 240 30 127 12 232
26 232 30 0 5 -160 143 -355 308 -405 342 -415 283 75 431 367 111 328 93 320
145 -8 55 -2 50 -80 64 -224 43 -519 173 -745 330 -121 84 -354 275 -345 284
3 2 167 45 365 96 437 111 435 110 435 119 0 4 -202 173 -449 376 -448 370
-448 370 -265 457 265 127 294 149 294 217 0 49 -22 84 -117 185 -118 127
-195 225 -346 444 -148 215 -172 259 -162 306 7 30 133 494 154 564 9 32 9 33
-36 53 -149 66 -209 179 -259 488 -25 157 -57 269 -141 495 -48 127 -48 127
-108 127 -60 0 -60 0 -99 -152 -166 -651 -247 -849 -383 -936 -66 -42 -121
-101 -133 -141 -15 -52 7 -87 108 -180 131 -120 170 -198 160 -325 -11 -127
-63 -201 -198 -280 -245 -143 -253 -287 -26 -464 16 -12 27 -24 25 -26 -2 -1
-99 -42 -215 -90 -257 -107 -246 -101 -214 -123 14 -10 92 -65 174 -123 83
-58 149 -109 148 -115 -2 -5 -177 -154 -389 -330 -213 -176 -388 -325 -390
-331 -2 -6 22 -19 54 -28 32 -9 158 -49 281 -89 224 -72 224 -72 88 -240 -75
-93 -136 -170 -136 -172 0 -1 7 -22 15 -45 8 -24 14 -44 13 -45 -2 -1 -133
-103 -292 -226 -159 -123 -294 -227 -300 -231 -20 -13 6 -21 450 -139 246 -65
455 -121 465 -124 27 -9 46 -105 24 -122 -9 -6 -228 -143 -485 -305 -469 -293
-469 -293 -463 -333 3 -22 7 -42 9 -44 2 -2 142 -10 311 -18 169 -8 311 -17
315 -21 4 -4 8 -32 10 -62 3 -59 54 -40 -1045 -388 -92 -29 -167 -56 -167 -61
0 -4 106 -58 236 -121 236 -114 236 -114 198 -132 -22 -10 -190 -80 -374 -157
-384 -159 -545 -233 -578 -264 -50 -47 -135 -190 -120 -201 8 -6 42 -33 76
-59 124 -97 150 -100 483 -66 279 28 374 15 562 -78 128 -62 149 -59 641 109
180 62 213 66 210 26 -1 -11 -405 -560 -526 -715 -7 -8 23 -46 98 -125 107
-113 107 -113 -17 -231 -173 -166 -193 -180 -569 -404 -184 -110 -553 -330
-819 -489 -529 -316 -539 -323 -671 -490 -105 -132 -117 -109 100 -187 206
-74 254 -83 374 -67 55 7 118 15 139 17 37 5 37 5 37 -226 0 -127 3 -231 6
-231 4 0 198 77 431 171 233 94 425 170 427 168 2 -2 9 -60 15 -128 16 -178
49 -243 138 -277 84 -33 270 -2 438 73 80 35 80 35 254 30 95 -3 174 -7 176
-9 1 -2 6 -28 9 -58 7 -55 7 -55 -206 -226 -350 -280 -435 -341 -688 -491
-640 -379 -1415 -701 -2445 -1018 -121 -37 -239 -79 -262 -92 -35 -20 -252
-215 -261 -233 -6 -13 247 -205 308 -234 81 -38 211 -41 477 -12 300 33 389
-11 319 -159 -26 -56 -63 -92 -216 -217 -109 -89 -152 -131 -188 -184 -19 -28
-126 -276 -120 -278 10 -5 193 -48 235 -56 103 -19 199 16 651 236 138 67 252
118 252 113 0 -5 -14 -55 -30 -111 -30 -100 -77 -404 -65 -417 4 -3 73 -6 153
-6 147 0 147 0 462 172 432 235 894 500 1103 631 175 109 175 109 211 66 20
-23 32 -45 27 -49 -6 -3 -81 -106 -167 -228 -198 -280 -329 -449 -436 -558
-136 -140 -672 -578 -1498 -1224 -744 -582 -912 -724 -1147 -966 -52 -54 -52
-54 -22 -118 16 -36 31 -67 34 -69 2 -2 234 29 515 68 291 41 515 69 520 64 5
-5 11 -25 14 -44 6 -35 6 -35 -274 -273 -154 -131 -280 -242 -280 -245 0 -4
10 -19 23 -33 23 -28 58 -28 564 5 91 6 91 6 108 -45 9 -27 15 -52 14 -53 -58
-46 -390 -290 -459 -337 -199 -136 -418 -231 -1395 -609 -405 -157 -516 -205
-655 -288 -63 -37 -65 -39 -68 -83 -6 -94 -25 -85 333 -151 176 -32 320 -60
322 -62 1 -1 -4 -43 -13 -92 -25 -138 -16 -306 20 -366 58 -100 160 -134 371
-124 213 9 359 44 748 182 116 41 214 71 217 66 4 -4 17 -32 30 -62 114 -272
208 -303 504 -165 95 44 382 208 596 339 137 84 139 85 165 56 16 -18 16 -22
3 -37 -344 -408 -532 -593 -928 -914 -596 -485 -1144 -827 -2055 -1284 -797
-401 -916 -486 -915 -654 1 -92 136 -160 280 -142 107 14 303 46 459 76 73 14
139 25 146 25 8 0 14 -36 18 -122 18 -363 126 -368 789 -37 131 66 240 119
243 119 3 0 5 -19 5 -42 0 -157 53 -288 130 -323 107 -48 349 33 695 233 66
38 187 109 270 156 159 92 221 118 234 98 4 -7 15 -64 25 -127 21 -132 10
-127 201 -101 287 39 542 143 980 401 176 104 398 227 464 256 25 12 70 32
100 46 30 13 50 18 45 11 -111 -147 -383 -455 -516 -584 -272 -265 -495 -413
-1113 -737 -143 -75 -268 -142 -277 -149 -15 -12 -10 -23 52 -120 50 -77 66
-109 57 -116 -7 -5 -61 -35 -122 -67 -524 -277 -2199 -1222 -2307 -1302 -165
-120 -187 -230 -70 -355 38 -41 43 -50 32 -63 -31 -37 -205 -142 -399 -239
-254 -128 -363 -200 -463 -304 -89 -94 -203 -280 -183 -300 3 -3 168 11 366
32 198 21 362 36 365 34 2 -3 -79 -126 -179 -274 -101 -148 -192 -282 -202
-298 -19 -29 -19 -29 90 -23 223 13 391 65 755 234 285 133 580 248 580 228 0
-2 -39 -57 -86 -122 -47 -65 -109 -163 -136 -218 -51 -100 -168 -354 -168
-362 0 -3 107 -3 238 -1 351 7 345 5 1056 412 247 141 450 255 452 254 1 -2
-10 -39 -26 -83 -59 -169 -91 -501 -53 -554 49 -67 218 -116 373 -108 147 8
261 49 622 224 98 48 180 84 182 82 2 -2 -11 -98 -30 -213 -19 -115 -32 -211
-29 -214 10 -11 182 18 251 42 151 52 222 105 500 377 226 221 248 238 240
187 -3 -18 -17 -116 -31 -218 -25 -184 -25 -184 17 -222 24 -20 46 -37 49 -38
3 0 224 184 490 410 484 409 484 409 486 367 1 -23 -66 -1158 -150 -2522 -152
-2480 -152 -2480 -200 -2483 -26 -2 -47 1 -47 6 0 33 -272 389 -406 531 -150
159 -503 425 -529 399 -3 -3 74 -267 170 -588 96 -321 172 -587 168 -591 -5
-4 -20 -11 -34 -14 -26 -6 -35 6 -199 239 -94 135 -175 246 -178 246 -4 0 -55
-109 -114 -243 -58 -133 -136 -310 -172 -393 -66 -150 -67 -150 -96 -146 -17
2 -30 7 -30 11 0 23 -124 837 -129 843 -4 4 -119 -170 -256 -386 -138 -217
-251 -393 -251 -393 -1 1 -16 200 -33 442 -39 527 -31 481 -78 488 -20 4 -39
5 -41 3 -2 -2 -78 -181 -169 -398 -90 -216 -166 -394 -168 -396 -4 -4 -3 -8
-79 265 -106 380 -187 578 -306 744 -59 84 -185 217 -195 208 -3 -3 47 -310
111 -683 64 -373 113 -680 111 -683 -3 -3 -176 118 -384 269 -208 151 -384
278 -391 282 -13 8 -62 -28 -62 -45 0 -5 87 -140 193 -301 217 -331 245 -374
231 -366 -38 23 -804 439 -816 443 -13 5 -38 -30 -38 -54 0 -5 90 -111 200
-236 110 -126 198 -230 196 -232 -2 -3 -139 30 -304 73 -166 42 -308 74 -316
71 -10 -4 -16 -18 -16 -36 0 -26 19 -42 205 -177 129 -93 201 -151 193 -155
-7 -4 -53 -10 -103 -14 -311 -23 -625 -113 -1580 -452 -129 -46 -246 -276
-189 -374 46 -80 200 -150 380 -173 157 -21 49427 -27 49594 -6 67 8 112 20
153 40 64 32 279 180 275 189 -2 3 -33 52 -70 108 -113 172 -130 184 -418 297
-547 216 -971 258 -1420 142 -52 -14 -95 -24 -96 -23 -1 1 52 100 118 220 65
121 118 222 116 227 -2 4 -82 -33 -178 -84 -535 -281 -496 -264 -457 -194 109
198 237 438 237 445 0 5 -12 21 -27 35 -28 26 -28 26 -203 -94 -96 -66 -230
-158 -296 -203 -103 -71 -124 -82 -139 -72 -14 11 2 44 154 316 94 167 171
307 171 311 0 15 -53 51 -66 46 -7 -3 -169 -124 -359 -271 -190 -146 -349
-265 -353 -265 -4 0 -18 9 -31 19 -24 18 -24 18 244 495 147 262 265 479 262
482 -8 9 -136 -53 -221 -108 -197 -126 -348 -278 -616 -623 -112 -145 -110
-142 -104 -119 8 39 164 872 164 881 0 14 -51 36 -60 26 -4 -4 -121 -194 -261
-422 -253 -414 -253 -414 -434 127 -99 297 -183 544 -187 547 -4 4 -30 2 -57
-5 -51 -12 -51 -12 -53 -601 -3 -589 -3 -589 -373 -123 -203 257 -373 471
-377 477 -16 26 -15 -23 12 -488 31 -527 32 -505 -25 -504 -28 0 -51 31 -405
549 -206 302 -380 549 -386 549 -6 1 -18 -7 -27 -17 -15 -17 -13 -51 38 -477
30 -253 53 -461 51 -462 -2 -2 -17 -8 -34 -12 -30 -9 -30 -9 -269 421 -132
237 -243 431 -248 432 -5 0 -79 -169 -164 -377 -140 -341 -158 -377 -178 -377
-23 0 -23 0 -23 325 0 207 -4 325 -10 325 -5 0 -163 -138 -351 -306 -187 -168
-342 -304 -343 -302 -2 1 -24 133 -50 293 -50 309 -49 303 -68 288 -7 -5 -111
-85 -230 -176 -119 -92 -219 -167 -222 -167 -3 0 -6 101 -6 225 0 190 -2 225
-15 225 -7 0 -100 -18 -206 -41 -105 -22 -194 -38 -197 -34 -5 5 18 225 35
336 4 32 2 39 -27 59 -32 23 -32 23 -261 -211 -228 -234 -228 -234 -228 39 -1
272 -1 272 -28 272 -27 0 -30 -6 -122 -260 -52 -143 -97 -258 -100 -256 -3 2
-96 216 -206 475 -110 259 -202 467 -206 463 -3 -4 -45 -158 -93 -342 -48
-184 -90 -337 -92 -339 -14 -14 -20 54 -43 467 -26 457 -26 457 -58 460 -18 2
-33 2 -34 0 -1 -2 -7 -110 -14 -241 -11 -215 -16 -259 -29 -246 -2 2 -9 42
-15 89 -18 135 -20 140 -45 140 -22 0 -27 -17 -106 -337 -45 -186 -94 -387
-109 -448 -27 -109 -27 -109 -357 382 -181 271 -332 492 -336 493 -4 0 -9
-230 -10 -512 -3 -512 -3 -512 -297 -145 -161 202 -295 366 -298 364 -2 -3
-29 -134 -59 -293 -30 -158 -56 -289 -57 -291 -2 -1 -102 152 -223 342 -120
189 -222 341 -225 337 -3 -4 -21 -128 -38 -277 -18 -148 -36 -283 -40 -298 -6
-26 -24 -7 -301 320 -162 191 -296 340 -298 332 -1 -8 16 -192 38 -409 48
-476 47 -440 14 -431 -23 6 -69 78 -281 436 -139 237 -257 431 -262 433 -4 1
-34 -183 -65 -410 -68 -490 -62 -460 -90 -456 -17 2 -37 43 -116 236 -52 128
-99 233 -105 234 -5 0 -59 -88 -119 -195 -89 -157 -113 -193 -128 -189 -24 6
-25 -17 27 536 24 264 43 481 41 483 -2 2 -19 6 -38 9 -35 6 -35 6 -233 -340
-110 -190 -202 -346 -205 -346 -3 0 -28 189 -55 420 -49 420 -49 420 -85 420
-35 -1 -35 -1 -210 -378 -96 -207 -192 -415 -214 -462 -39 -84 -39 -84 -133
105 -63 126 -98 184 -102 174 -4 -8 -39 -116 -76 -241 -38 -126 -71 -228 -74
-228 -4 0 -49 82 -102 182 -53 100 -101 183 -105 185 -5 2 -83 -172 -173 -386
-91 -215 -168 -388 -171 -386 -4 2 -53 101 -110 219 -57 119 -106 216 -109
216 -4 0 -40 -65 -81 -144 -41 -79 -78 -142 -82 -140 -78 49 -280 574 -462
1204 -269 928 -348 1835 -220 2520 92 495 96 1265 9 2015 -51 442 -58 594 -45
885 21 463 44 745 61 742 7 -2 132 -52 275 -112 309 -128 431 -171 585 -205
263 -59 2640 -518 3314 -641 868 -158 1185 -269 1531 -534 208 -159 1706
-1629 1866 -1830 294 -371 371 -673 263 -1035 -26 -88 -28 -148 -7 -183 5 -8
92 -24 233 -43 123 -17 231 -33 239 -35 8 -3 -28 -27 -85 -58 -381 -199 -415
-352 -190 -847 196 -433 502 -776 928 -1040 180 -112 268 -127 334 -56 46 51
53 83 143 647 44 278 89 555 100 615 144 822 -21 1524 -500 2121 -140 175
-214 250 -495 504 -985 890 -1469 1458 -1991 2338 -176 299 -553 518 -1389
809 -614 213 -763 287 -2816 1388 -727 390 -727 390 -530 491 544 279 876 568
1121 974 265 440 406 974 435 1655 41 957 349 1506 1135 2027 288 190 473 353
1075 947 302 298 372 375 623 679 52 64 52 64 52 5 0 -79 -25 -288 -55 -458
-67 -386 -32 -639 143 -1020 58 -128 78 -164 265 -490 145 -253 136 -242 261
-306 79 -41 120 -71 193 -140 104 -100 129 -111 182 -83 53 28 139 117 161
167 22 49 110 476 195 947 49 266 61 319 81 343 26 31 17 41 138 -152 35 -54
36 -52 74 93 17 65 34 121 37 124 3 3 47 -35 98 -86 51 -51 95 -92 99 -92 4 0
41 71 83 157 75 157 75 157 148 85 73 -72 73 -72 322 240 138 171 257 320 265
331 14 17 17 17 54 2 48 -20 48 -19 76 85 84 322 235 851 257 896 33 71 83
119 178 172 483 270 1303 117 1605 -300 333 -460 923 -586 1415 -304 136 78
135 77 84 117 -670 521 -837 856 -636 1278 49 105 54 97 61 -86 27 -743 636
-1242 1453 -1192 399 24 582 188 583 524 0 288 -168 1316 -275 1680 -210 708
-679 1181 -1450 1462 -646 236 -1225 409 -1840 552 -577 134 -753 179 -990
252 -487 151 -914 353 -1134 538 -87 73 -286 255 -286 261 0 23 30 100 39 100
7 0 219 65 471 145 1443 457 1670 506 2795 595 517 41 711 66 1020 131 1587
331 2714 1296 3440 2944 278 633 310 1381 90 2130 -52 177 -72 213 -188 335
-105 112 -101 110 -147 74 -33 -25 -33 -25 -38 -622 -5 -699 -15 -795 -123
-1134 -120 -379 -275 -661 -463 -848 -206 -204 -221 -215 -260 -182 -31 27
-31 27 14 137 148 355 225 658 225 888 0 143 -48 439 -75 465 -21 21 -112
-110 -511 -742 -595 -941 -865 -1340 -976 -1442 -163 -150 -505 -307 -666
-306 -241 2 -374 198 -307 454 55 213 322 725 577 1107 472 708 539 867 857
2022 70 257 70 257 56 310 -15 60 -73 189 -84 189 -12 0 -189 -158 -214 -192
-27 -36 -70 -119 -82 -158 -17 -55 -304 -681 -416 -906 -186 -375 -222 -420
-499 -629 -153 -115 -127 -139 -216 195 -67 248 -67 289 7 1168 52 630 52 640
-13 845 -31 97 -31 97 -69 97 -84 0 -75 19 -173 -366 -330 -1297 -722 -2673
-802 -2813 -91 -158 -377 -461 -486 -515 -182 -91 -363 46 -509 384 -105 243
-114 558 -24 758 20 44 241 291 250 280 2 -2 -3 -97 -11 -213 -18 -295 -18
-597 1 -661 11 -38 115 -256 130 -272 6 -7 229 134 273 173 80 72 304 529 390
795 62 191 275 1015 507 1965 148 600 148 600 142 698 -6 115 0 105 -60 109
-55 3 -50 13 -237 -472 -288 -747 -469 -1064 -781 -1365 -77 -75 -111 -99
-189 -137 -83 -41 -371 -152 -375 -145 -9 12 -26 365 -20 425 7 79 83 388 375
1527 193 752 187 723 196 985 7 195 7 195 -66 213 -40 10 -74 16 -76 14 -29
-29 -231 -541 -392 -997 -384 -1084 -474 -1309 -581 -1454 -212 -286 -604
-221 -714 119 -49 151 -50 159 -57 1205 -6 870 -9 993 -24 1056 -16 70 -122
414 -130 421 -6 7 -196 -332 -232 -415 -39 -90 -91 -286 -158 -592 -140 -642
-203 -835 -311 -958 -230 -259 -558 -193 -786 158 -237 364 -265 500 -329
1625 -64 1116 -54 1009 -96 1002 -84 -14 -186 -79 -228 -146 -53 -84 -86 -274
-151 -871 -67 -609 -74 -664 -100 -755 -110 -377 -410 -512 -706 -316 -277
183 -659 773 -844 1306 -56 159 -109 345 -225 775 -39 146 -84 294 -100 329
-24 49 -119 219 -137 240 -1 2 -30 -4 -63 -14 -60 -18 -60 -18 -60 -201 0
-197 -1 -193 95 -729 127 -706 132 -850 39 -1041 -116 -237 -379 -283 -581
-100 -60 55 -325 444 -555 816 -215 349 -219 357 -322 594 -103 238 -117 258
-209 307 -60 32 -60 32 -89 -2 -109 -131 -110 -156 -24 -769 148 -1060 193
-1278 526 -2560 60 -234 113 -440 116 -457 7 -36 24 -40 93 -27 39 8 51 26
311 469 441 753 505 840 675 924 112 56 174 35 288 -96 115 -134 157 -234 164
-393 10 -201 -24 -322 -252 -905 -299 -766 -329 -890 -251 -1051 153 -320 424
-644 716 -855 144 -104 223 -150 236 -137 7 7 50 64 97 127 83 112 121 175
687 1181 329 583 406 687 569 768 150 76 211 63 346 -72 144 -144 198 -363
151 -608 -18 -94 -260 -826 -428 -1298 -248 -694 -223 -610 -223 -735 0 -167
29 -222 225 -415 348 -345 515 -339 937 33 578 510 854 1075 903 1852 14 229
35 298 111 374 140 140 324 125 470 -37 197 -221 283 -548 282 -1087 0 -387
-47 -642 -183 -990 -143 -367 -272 -565 -837 -1280 -35 -44 -63 -83 -63 -86 0
-4 42 -33 93 -65 586 -366 654 -487 357 -635 -126 -63 -750 -298 -1085 -410
-414 -137 -402 -136 -660 -70 -93 24 -176 47 -183 51 -18 9 174 193 508 484
706 617 897 810 1176 1191 473 646 690 1333 654 2067 -18 360 -58 505 -170
617 -52 52 -136 108 -147 97 -3 -3 -16 -101 -29 -218 -40 -379 -56 -466 -121
-663 -379 -1156 -1160 -1961 -2424 -2498 -307 -131 -396 -151 -659 -152 -205
0 -251 11 -327 79 -148 133 -103 311 173 683 654 882 1044 1657 1263 2504 132
513 151 689 102 957 -24 132 -24 132 -85 132 -61 0 -61 0 -136 -127 -143 -246
-1487 -2376 -1733 -2748 -171 -260 -379 -473 -593 -610 -266 -170 -529 -171
-695 -3 -164 167 -195 418 -113 911 66 394 146 654 672 2177 435 1260 407
1165 407 1385 0 267 -10 364 -38 370 -67 16 -64 18 -169 -135 -55 -80 -112
-167 -127 -195 -992 -1809 -1396 -2455 -1634 -2617 -273 -185 -523 -98 -827
286 -189 240 -215 302 -445 1066 -276 917 -367 1348 -575 2721 -122 805 -153
956 -223 1079 -31 54 -193 307 -207 323 -7 8 -95 -200 -142 -333 -50 -144 -56
-239 -83 -1270 -24 -928 -68 -1430 -139 -1585 -42 -93 -183 -224 -275 -256
-68 -24 -246 102 -329 234 -91 144 -163 321 -197 485 -62 297 -262 1459 -390
2262 -112 706 -213 1290 -230 1337 -14 36 -182 231 -209 241 -12 5 -110 -166
-135 -233 -23 -62 -42 -656 -41 -1295 0 -405 5 -529 37 -1015 24 -374 24 -840
-1 -920 -69 -224 -172 -329 -307 -311 -233 31 -537 232 -688 454 -79 117 -475
838 -651 1187 -292 578 -326 666 -721 1825 -142 417 -162 462 -270 597 -81
101 -81 101 -132 78 -52 -22 -52 -22 -65 -146 -22 -207 -14 -278 132 -1224
292 -1892 299 -1973 186 -2115 -103 -130 -315 -112 -511 43 -79 63 -101 93
-326 442 -1054 1634 -1178 1857 -1448 2605 -203 563 -223 608 -335 760 -82
111 -76 108 -143 81 -53 -22 -53 -22 -65 -144 -18 -184 -15 -280 13 -409 92
-426 428 -1867 472 -2028 47 -171 53 -301 15 -361 -73 -118 -183 -127 -354
-28 -234 136 -336 266 -868 1109 -169 268 -233 355 -362 494 -73 79 -73 79
-135 48 -59 -30 -62 -33 -58 -64 3 -18 10 -105 15 -193 18 -269 26 -293 307
-980 290 -709 312 -772 332 -965 17 -157 29 -295 27 -297 -4 -5 -321 104 -378
130 -142 63 -262 194 -793 862 -286 361 -330 411 -465 526 -168 143 -157 138
-215 104 -48 -28 -48 -28 -42 -249 7 -259 11 -281 77 -530 391 -1462 1163
-2551 2365 -3341 1394 -916 3236 -1950 4758 -2671 2289 -1085 3999 -1665 5523
-1874 296 -40 406 -90 568 -254 159 -162 686 -758 686 -776 0 -3 -125 -52
-278 -109 -383 -143 -1022 -388 -1232 -473 -1413 -567 -2508 -668 -3730 -343
-564 150 -1029 186 -1552 119 -500 -63 -1058 -276 -1528 -585 -234 -154 -853
-635 -1125 -874 -800 -704 -1458 -1066 -2195 -1209 -293 -57 -1442 -221 -1785
-255 -645 -65 -2213 -109 -3125 -89 -683 15 -1436 5 -1660 -21 -1258 -146
-2293 -486 -3288 -1078 -575 -341 -810 -626 -950 -1150 -81 -306 -47 -444 139
-567 100 -66 93 0 97 -906 3 -934 -14 -2604 -28 -2745 -121 -1186 -767 -1994
-2184 -2732 -250 -130 -364 -205 -479 -312 -176 -166 -293 -357 -370 -603
-324 -1038 -554 -1658 -915 -2473 -507 -1145 -1429 -2899 -1720 -3275 -215
-277 -471 -456 -776 -545 -49 -14 -96 -31 -104 -37 -63 -53 -146 -249 -173
-413 -26 -153 -45 -197 -97 -224 -187 -95 -373 -303 -572 -634 -58 -97 -106
-174 -108 -173 -1 2 9 224 23 495 14 270 25 510 23 532 -3 41 -3 41 -198 -222
-107 -144 -195 -258 -197 -253 -3 11 -243 4703 -243 4762 0 43 0 43 62 -5 34
-26 167 -151 297 -276 396 -384 549 -488 820 -558 84 -22 211 -36 211 -24 0 7
-305 1001 -316 1030 -3 6 21 23 52 38 67 33 32 60 275 -208 364 -402 550 -594
621 -641 118 -78 231 -124 336 -139 102 -14 151 -40 302 -160 36 -28 70 -54
76 -58 13 -7 117 129 151 198 12 22 167 380 346 795 305 708 692 1605 786
1820 75 172 85 253 40 326 -37 61 -101 89 -530 233 -1229 411 -1592 581 -1994
932 -163 143 -522 559 -462 536 9 -3 154 -84 324 -180 877 -495 1129 -617
1271 -617 131 0 199 78 307 350 21 52 39 96 40 98 1 2 72 -50 156 -116 276
-212 362 -258 569 -303 214 -47 555 1 711 102 61 39 92 73 284 314 231 289
309 363 543 515 105 69 192 128 192 131 0 6 -114 68 -600 329 -623 335 -960
542 -1275 784 -187 144 -377 310 -364 319 123 92 46 77 684 132 731 63 679 69
815 -92 256 -300 369 -271 980 247 215 182 215 182 218 -684 2 -865 2 -865 51
-836 780 459 1197 1017 1285 1720 23 178 52 1490 58 2565 3 490 3 490 -30 575
-285 724 -301 1243 -56 1770 238 513 607 843 1652 1479 344 209 394 234 885
441 119 51 217 95 217 98 -1 4 -101 81 -223 172 -707 526 -1051 854 -1320
1258 -88 133 -244 419 -233 429 9 9 259 -130 651 -362 506 -299 826 -418 1194
-444 149 -11 281 -4 281 14 0 6 -29 110 -64 231 -35 120 -63 220 -62 221 1 2
51 -39 112 -89 343 -287 533 -371 764 -338 104 15 320 93 320 116 0 4 -87 97
-193 208 -107 110 -263 275 -347 366 -84 91 -171 184 -193 207 -40 42 -40 42
-13 77 26 35 26 35 309 33 422 -3 602 42 827 209 95 71 98 65 -52 119 -1495
534 -3002 1106 -3296 1251 -343 169 -559 387 -682 683 -16 39 -26 71 -23 71
11 0 234 -131 361 -212 407 -260 513 -251 686 54 27 48 27 48 124 -1 218 -109
366 -146 587 -146 262 1 410 49 524 170 74 80 82 104 51 162 -46 86 -129 148
-496 367 -192 115 -389 236 -439 269 -427 284 -774 636 -1013 1028 -40 66 -40
66 116 -29 552 -335 876 -361 1295 -104 31 19 57 36 57 38 0 1 -139 103 -310
225 -170 123 -309 224 -307 225 1 1 74 19 162 39 257 60 313 86 527 253 98 77
98 77 15 161 -108 110 -181 163 -269 197 -517 195 -1237 699 -1526 1067 -52
67 -52 67 512 67 564 0 564 0 571 46 4 26 3 50 -2 53 -5 3 -52 36 -104 73
-113 79 -141 95 -419 251 -573 319 -744 424 -847 520 -132 124 -193 241 -217
420 -5 38 -5 38 38 -20 177 -239 422 -325 698 -244 108 31 108 10 9 241 -88
205 -88 205 494 208 581 2 581 2 594 53 16 61 25 53 -100 90 -483 145 -878
401 -1208 784 -79 92 -188 235 -197 260 -7 16 -21 12 362 105 165 40 302 76
306 80 5 3 -237 145 -537 314 -300 170 -547 312 -550 315 -2 4 210 97 470 207
475 199 475 199 475 259 0 60 0 60 -283 169 -155 60 -284 111 -286 112 -2 2 4
21 13 44 37 92 11 162 -76 203 -29 14 -87 41 -129 61 -64 30 -91 51 -177 141
-56 58 -102 109 -102 114 0 4 72 50 160 100 148 85 167 94 246 106 48 8 89 16
91 18 2 3 -146 134 -329 292 -183 158 -333 290 -333 293 0 4 72 46 160 94 88
49 164 93 168 97 5 5 -86 77 -202 160 -116 84 -213 155 -215 160 -3 4 29 45
71 92 81 90 113 135 113 159 0 8 -30 60 -66 114 -170 255 -196 347 -140 510
23 69 23 70 5 95 -19 26 -188 429 -252 601 -19 52 -50 154 -67 225 -39 153
-31 142 -100 150 -55 6 -55 6 -104 -132z m-4905 -11554 c126 -25 280 -79 530
-185 457 -194 544 -219 789 -219 187 0 234 9 382 71 75 31 69 33 105 -39 98
-199 80 -337 -82 -628 -40 -71 -64 -124 -58 -130 19 -19 249 -31 361 -19 302
32 483 115 988 455 152 102 278 184 281 182 6 -6 -53 -186 -98 -300 -131 -330
-341 -628 -599 -851 -268 -232 -627 -440 -1593 -922 -662 -331 -609 -327 -873
-73 -88 85 -216 217 -284 294 -68 77 -132 150 -144 163 -24 27 -28 28 312
-107 443 -176 680 -215 962 -157 111 23 258 73 295 100 20 15 -36 62 -870 732
-1321 1061 -1355 1093 -1560 1487 -88 169 -88 169 36 77 376 -281 605 -396
880 -445 104 -19 319 -31 319 -19 0 5 -63 132 -140 283 -77 151 -140 276 -140
278 0 6 97 -7 201 -28z m-803 -3127 c58 -41 203 -113 312 -156 394 -155 813
-171 1470 -55 129 22 457 61 467 55 1 -1 -56 -103 -127 -226 -129 -226 -129
-226 -116 -275 15 -61 -41 -64 470 26 219 39 400 68 403 65 3 -3 -13 -42 -35
-88 -238 -490 -714 -712 -1188 -553 -224 75 -747 378 -1094 634 -286 210 -673
570 -629 582 37 11 39 10 67 -9z m944 -2573 c31 -208 22 -199 202 -199 203 1
357 33 551 117 298 129 498 204 510 191 1 -1 -35 -85 -81 -186 -84 -183 -84
-183 -64 -223 11 -21 26 -39 34 -39 7 0 326 95 707 210 639 194 695 209 706
194 10 -14 10 -21 0 -33 -187 -227 -287 -327 -512 -517 -995 -833 -1979 -1358
-3043 -1623 -303 -76 -353 -84 -467 -79 -98 5 -386 48 -384 58 0 5 80 73 203
173 146 120 251 160 1696 659 239 83 454 157 478 165 23 8 42 18 42 23 0 4
-107 79 -237 165 -455 302 -606 428 -731 612 -44 65 -122 215 -122 236 0 13
466 218 485 213 6 -1 18 -54 27 -117z m3608 -2265 c0 -29 -217 -386 -293 -484
-720 -918 -1710 -1772 -2947 -2543 -500 -311 -610 -363 -1215 -568 -289 -99
-326 -109 -390 -109 -84 1 -253 23 -265 36 -6 7 -40 107 -40 120 0 2 172 89
383 193 1187 592 1967 1071 2675 1645 224 182 227 184 222 189 -3 2 -231 145
-507 317 -277 172 -500 316 -497 319 3 3 316 107 697 231 692 226 692 226 695
63 3 -189 -12 -175 159 -147 262 42 459 141 820 411 284 213 503 355 503 327z
m9542 -5409 c688 -356 1063 -514 1581 -665 1023 -300 2216 -390 3534 -265 242
22 1202 99 1963 156 675 51 688 51 872 40 597 -37 862 -183 1018 -561 45 -108
68 -202 189 -765 60 -280 198 -917 305 -1415 309 -1437 531 -2524 686 -3361
109 -591 127 -835 139 -1884 7 -663 4 -755 -28 -719 -4 5 -128 159 -275 342
-147 182 -272 332 -277 332 -6 0 -23 -7 -39 -15 -30 -16 -30 -16 -30 -265 0
-138 -3 -250 -7 -250 -5 0 -17 -3 -29 -6 -19 -5 -33 27 -173 375 -85 210 -157
381 -161 381 -4 0 -99 -124 -211 -276 -204 -275 -204 -275 -207 48 -2 324 -2
324 -31 341 -16 9 -35 17 -43 17 -7 0 -152 -155 -322 -345 -171 -189 -311
-343 -312 -342 -1 1 29 175 67 386 38 211 67 386 65 389 -3 2 -76 -56 -162
-129 -86 -74 -248 -211 -358 -305 -111 -94 -202 -171 -203 -170 -1 1 217 996
231 1052 4 13 3 24 -1 24 -5 0 -143 -113 -308 -250 -300 -249 -300 -249 -340
-130 -22 65 -43 121 -46 125 -3 3 -53 -125 -110 -285 -57 -159 -106 -290 -109
-290 -11 0 -91 128 -120 194 -78 176 -83 330 -25 741 39 280 42 324 19 303
-11 -9 -179 -205 -374 -436 -224 -264 -356 -413 -359 -403 -2 9 -36 240 -75
514 -39 274 -75 498 -80 498 -5 0 -60 -106 -122 -237 -113 -237 -113 -237
-126 -203 -8 19 -66 184 -129 366 -63 183 -116 333 -119 333 -3 0 -101 -246
-219 -546 -209 -530 -216 -545 -240 -542 -26 3 -26 3 -96 476 -39 260 -73 474
-76 475 -4 1 -57 -60 -119 -136 -62 -75 -115 -136 -117 -134 -1 2 -39 164 -83
360 -44 196 -82 368 -86 382 -5 22 -11 25 -54 25 -47 0 -47 0 -180 -432 -72
-238 -135 -439 -140 -447 -5 -9 -115 111 -366 402 -197 229 -361 416 -364 416
-5 1 -61 -1184 -60 -1262 0 -27 -2 -28 -41 -25 -41 3 -41 3 -266 493 -123 270
-228 494 -233 499 -4 4 -22 5 -39 1 -31 -7 -31 -7 -31 -395 0 -388 0 -388 -31
-399 -18 -6 -35 -11 -39 -11 -4 0 -67 107 -138 238 -72 130 -138 246 -146 257
-18 24 -15 46 -62 -505 -20 -228 -37 -416 -38 -417 -1 -2 -16 -5 -32 -8 -29
-6 -29 -6 -223 368 -192 370 -194 373 -222 369 -29 -4 -29 -4 -29 -432 0 -428
0 -428 -36 -440 -19 -7 -36 -10 -38 -8 -1 1 -90 157 -196 346 -106 188 -196
339 -200 335 -4 -5 -71 -218 -150 -476 -132 -429 -145 -468 -167 -473 -33 -9
-25 -33 -127 357 -51 195 -97 353 -101 352 -5 -1 -77 -180 -159 -397 -145
-382 -152 -396 -176 -394 -27 3 -14 -63 -140 740 -23 146 -23 146 -56 164 -18
10 -36 15 -39 12 -5 -4 -342 -768 -403 -911 -49 -116 -1001 1341 -1462 2238
-300 584 -643 1432 -744 1840 -96 390 -38 778 162 1089 53 83 444 618 618 846
538 705 808 1136 1173 1868 128 255 371 797 424 945 9 26 11 25 229 -88z
m-4072 -1572 c-267 -772 -365 -1000 -725 -1693 -227 -436 -175 -829 171 -1300
408 -554 1868 -2714 2039 -3016 59 -104 146 -247 193 -319 235 -357 243 -519
33 -737 -35 -38 -67 -68 -71 -68 -3 0 -32 36 -65 80 -32 43 -62 77 -66 74 -4
-2 -45 -65 -90 -138 -81 -132 -83 -135 -113 -129 -17 3 -31 6 -32 7 -1 1 -9
136 -18 301 -25 446 -21 417 -67 437 -39 17 -39 17 -241 -393 -111 -225 -204
-409 -207 -409 -3 0 -100 295 -216 656 -115 361 -213 657 -216 660 -4 2 -60
-153 -124 -344 -65 -191 -127 -372 -138 -402 -20 -55 -20 -55 -79 120 -70 212
-67 204 -73 198 -3 -3 -59 -153 -125 -334 -67 -181 -132 -360 -146 -397 -26
-68 -26 -68 -243 309 -119 208 -221 379 -226 381 -6 1 -102 -166 -214 -372
-113 -207 -208 -372 -212 -368 -4 5 -21 71 -39 148 -18 77 -36 146 -40 154 -8
16 7 35 -231 -294 -167 -230 -175 -240 -204 -237 -31 3 -31 3 22 395 29 216
52 402 50 415 -2 21 -36 -4 -279 -198 -249 -199 -279 -220 -298 -210 -12 7
-19 18 -16 26 3 7 69 210 147 451 141 437 141 437 113 460 -16 13 -33 22 -39
20 -5 -2 -242 -276 -525 -609 -461 -542 -516 -603 -522 -581 -4 14 -18 93 -32
176 -68 401 -50 632 71 921 90 212 102 -116 -93 2671 -113 1624 -111 1595
-116 1601 -10 10 -307 -315 -395 -433 -89 -117 -874 -1180 -947 -1281 -44 -61
-70 -124 -85 -207 -20 -113 -161 -1786 -161 -1909 0 -88 29 -159 130 -326 174
-288 276 -599 315 -960 15 -140 21 -530 8 -530 -5 1 -185 249 -401 553 -216
304 -399 560 -407 570 -13 18 -15 17 -49 -5 -21 -14 -34 -29 -31 -38 12 -43
185 -893 182 -896 -2 -2 -14 -5 -27 -6 -21 -3 -46 32 -227 317 -112 176 -208
327 -213 335 -16 27 -19 7 -60 -346 -22 -192 -43 -360 -46 -374 -5 -24 -153
261 -331 640 -34 73 -46 91 -53 79 -5 -9 -100 -252 -211 -540 -110 -288 -202
-525 -203 -526 -1 -1 -58 189 -127 422 -68 234 -126 425 -129 425 -3 0 -72
-181 -154 -402 -82 -222 -150 -405 -152 -406 -1 -2 -39 14 -84 37 -204 102
-296 36 -431 -311 -19 -49 -37 -88 -40 -88 -10 0 -48 103 -64 173 -30 131 0
251 126 498 80 157 106 186 275 300 101 68 101 68 135 39 19 -16 39 -29 45
-30 5 0 27 90 48 203 50 263 56 285 196 728 216 681 281 832 600 1389 472 822
1355 2266 1575 2576 483 678 1102 1163 1875 1469 725 287 2428 957 2475 974
33 12 152 48 265 81 113 32 205 59 206 59 0 1 -56 -164 -126 -366z m-3924
-6309 c148 -224 182 -476 122 -912 -6 -45 -13 -81 -15 -79 -3 4 -253 1157
-253 1167 1 13 97 -104 146 -176z"/>
</g>
</svg>
